<svg width="52" height="49" viewBox="0 0 52 49" fill="none" xmlns="http://www.w3.org/2000/svg">
<rect x="0.5" y="0.25" width="51.5" height="48.5" rx="24.25" fill="#F5BA31"/>
<path d="M33 20.75V31.25C33 31.6478 32.842 32.0294 32.5607 32.3107C32.2794 32.592 31.8978 32.75 31.5 32.75H18C17.6022 32.75 17.2206 32.592 16.9393 32.3107C16.658 32.0294 16.5 31.6478 16.5 31.25V20.75C16.5 20.3522 16.658 19.9706 16.9393 19.6893C17.2206 19.408 17.6022 19.25 18 19.25H31.5C31.8978 19.25 32.2794 19.408 32.5607 19.6893C32.842 19.9706 33 20.3522 33 20.75ZM34.5 16.25H20.25C20.0511 16.25 19.8603 16.329 19.7197 16.4697C19.579 16.6103 19.5 16.8011 19.5 17C19.5 17.1989 19.579 17.3897 19.7197 17.5303C19.8603 17.671 20.0511 17.75 20.25 17.75H34.5V29C34.5 29.1989 34.579 29.3897 34.7197 29.5303C34.8603 29.671 35.0511 29.75 35.25 29.75C35.4489 29.75 35.6397 29.671 35.7803 29.5303C35.921 29.3897 36 29.1989 36 29V17.75C36 17.3522 35.842 16.9706 35.5607 16.6893C35.2794 16.408 34.8978 16.25 34.5 16.25Z" fill="#111111"/>
</svg>
