<svg width="56" height="57" viewBox="0 0 56 57" fill="none" xmlns="http://www.w3.org/2000/svg">
<rect y="0.5" width="56" height="56" rx="28" fill="#F5BA31"/>
<path d="M28 16.5C29.1016 16.5 30.1641 16.6406 31.1875 16.9219C32.2109 17.2031 33.1641 17.6094 34.0469 18.1406C34.9297 18.6719 35.7383 19.2969 36.4727 20.0156C37.207 20.7344 37.8359 21.543 38.3594 22.4414C38.8828 23.3398 39.2852 24.2969 39.5664 25.3125C39.8477 26.3281 39.9922 27.3906 40 28.5C40 29.6016 39.8594 30.6641 39.5781 31.6875C39.2969 32.7109 38.8906 33.6641 38.3594 34.5469C37.8281 35.4297 37.2031 36.2383 36.4844 36.9727C35.7656 37.707 34.957 38.3359 34.0586 38.8594C33.1602 39.3828 32.2031 39.7852 31.1875 40.0664C30.1719 40.3477 29.1094 40.4922 28 40.5C26.8984 40.5 25.8359 40.3594 24.8125 40.0781C23.7891 39.7969 22.8359 39.3906 21.9531 38.8594C21.0703 38.3281 20.2617 37.7031 19.5273 36.9844C18.793 36.2656 18.1641 35.457 17.6406 34.5586C17.1172 33.6602 16.7148 32.7031 16.4336 31.6875C16.1523 30.6719 16.0078 29.6094 16 28.5C16 27.3984 16.1406 26.3359 16.4219 25.3125C16.7031 24.2891 17.1094 23.3359 17.6406 22.4531C18.1719 21.5703 18.7969 20.7617 19.5156 20.0273C20.2344 19.293 21.043 18.6641 21.9414 18.1406C22.8398 17.6172 23.7969 17.2148 24.8125 16.9336C25.8281 16.6523 26.8906 16.5078 28 16.5ZM35.0664 24.5273L33.4727 22.9336L25.75 30.6562L22.5273 27.4336L20.9336 29.0273L25.75 33.8438L35.0664 24.5273Z" fill="#111111"/>
</svg>
