<svg width="44" height="44" viewBox="0 0 44 44" fill="none" xmlns="http://www.w3.org/2000/svg">
<rect width="44" height="44" rx="22" fill="#F5BA31" fill-opacity="0.1"/>
<path d="M22 22C22.55 22 23.021 21.804 23.413 21.412C23.8043 21.0207 24 20.55 24 20C24 19.45 23.8043 18.979 23.413 18.587C23.021 18.1957 22.55 18 22 18C21.45 18 20.9793 18.1957 20.588 18.587C20.196 18.979 20 19.45 20 20C20 20.55 20.196 21.0207 20.588 21.412C20.9793 21.804 21.45 22 22 22ZM22 32C19.3167 29.7167 17.3127 27.5957 15.988 25.637C14.6627 23.679 14 21.8667 14 20.2C14 17.7 14.8043 15.7083 16.413 14.225C18.021 12.7417 19.8833 12 22 12C24.1167 12 25.979 12.7417 27.587 14.225C29.1957 15.7083 30 17.7 30 20.2C30 21.8667 29.3377 23.679 28.013 25.637C26.6877 27.5957 24.6833 29.7167 22 32Z" fill="#F5BA31"/>
</svg>
