<svg width="22" height="21" viewBox="0 0 22 21" fill="none" xmlns="http://www.w3.org/2000/svg">
<path d="M21.0684 18.6875C19.7535 16.4203 17.7122 14.6631 15.2747 13.7C16.471 12.8028 17.3547 11.5518 17.8006 10.1244C18.2464 8.69705 18.2319 7.16555 17.759 5.74688C17.2861 4.3282 16.3789 3.09428 15.1657 2.2199C13.9526 1.34552 12.4951 0.875 10.9997 0.875C9.5042 0.875 8.04673 1.34552 6.83359 2.2199C5.62045 3.09428 4.71317 4.3282 4.24028 5.74688C3.76739 7.16555 3.75286 8.69705 4.19874 10.1244C4.64463 11.5518 5.52832 12.8028 6.72465 13.7C4.28712 14.6631 2.2458 16.4203 0.930899 18.6875C0.781719 18.9461 0.741369 19.2533 0.818719 19.5417C0.896079 19.83 1.08482 20.0758 1.3434 20.225C1.60199 20.3742 1.90925 20.4145 2.19758 20.3372C2.48592 20.2598 2.73172 20.0711 2.8809 19.8125C3.70376 18.3874 4.88723 17.2041 6.31236 16.3813C7.73749 15.5586 9.3541 15.1254 10.9997 15.1254C12.6452 15.1254 14.2618 15.5586 15.6869 16.3813C17.1121 17.2041 18.2955 18.3874 19.1184 19.8125C19.2179 19.983 19.3602 20.1246 19.5312 20.2232C19.7022 20.3219 19.896 20.3742 20.0934 20.375C20.291 20.3766 20.4853 20.3248 20.6559 20.225C20.784 20.1512 20.8963 20.0529 20.9864 19.9356C21.0764 19.8184 21.1425 19.6845 21.1808 19.5417C21.2191 19.399 21.2289 19.25 21.2096 19.1034C21.1903 18.9569 21.1424 18.8155 21.0684 18.6875ZM6.12465 8C6.12465 7.03582 6.41057 6.09329 6.94624 5.2916C7.48191 4.48991 8.24328 3.86506 9.1341 3.49609C10.0249 3.12711 11.0051 3.03057 11.9507 3.21867C12.8964 3.40677 13.765 3.87107 14.4468 4.55285C15.1286 5.23464 15.5929 6.10328 15.781 7.04893C15.9691 7.99459 15.8725 8.97479 15.5036 9.8656C15.1346 10.7564 14.5097 11.5177 13.7081 12.0534C12.9064 12.5891 11.9638 12.875 10.9997 12.875C9.7067 12.875 8.46675 12.3614 7.55251 11.4471C6.63827 10.5329 6.12465 9.2929 6.12465 8Z" fill="#111111"/>
</svg>
