<svg width="52" height="53" viewBox="0 0 52 53" fill="none" xmlns="http://www.w3.org/2000/svg">
<rect y="0.5" width="52" height="52" rx="26" fill="#F5BA31"/>
<path d="M29.25 33.5H30.25V29.5H29.25V33.5ZM31.75 33.5H32.75V29.5H31.75V33.5ZM19 22.5H31V20.5H19V22.5ZM31 36.5C29.6167 36.5 28.4377 36.0127 27.463 35.038C26.4877 34.0627 26 32.8833 26 31.5C26 30.1167 26.4877 28.9373 27.463 27.962C28.4377 26.9873 29.6167 26.5 31 26.5C32.3833 26.5 33.5627 26.9873 34.538 27.962C35.5127 28.9373 36 30.1167 36 31.5C36 32.8833 35.5127 34.0627 34.538 35.038C33.5627 36.0127 32.3833 36.5 31 36.5ZM16 35.5V18.5C16 17.95 16.1957 17.479 16.587 17.087C16.979 16.6957 17.45 16.5 18 16.5H32C32.55 16.5 33.021 16.6957 33.413 17.087C33.8043 17.479 34 17.95 34 18.5V25.175C33.6833 25.025 33.3583 24.9 33.025 24.8C32.6917 24.7 32.35 24.625 32 24.575V18.5H18V32.55H24.075C24.1583 33.0667 24.2877 33.5583 24.463 34.025C24.6377 34.4917 24.8667 34.9333 25.15 35.35L25 35.5L23.5 34L22 35.5L20.5 34L19 35.5L17.5 34L16 35.5ZM19 30.5H24.075C24.125 30.15 24.2 29.8083 24.3 29.475C24.4 29.1417 24.525 28.8167 24.675 28.5H19V30.5ZM19 26.5H26.1C26.7333 25.8833 27.4707 25.3957 28.312 25.037C29.154 24.679 30.05 24.5 31 24.5H19V26.5Z" fill="#111111"/>
</svg>
