<svg width="45" height="45" viewBox="0 0 45 45" fill="none" xmlns="http://www.w3.org/2000/svg">
<rect x="0.5" y="0.5" width="44" height="44" rx="22" fill="#172CEB" fill-opacity="0.1"/>
<path d="M33.75 22.5C33.75 22.6989 33.671 22.8897 33.5303 23.0303C33.3897 23.171 33.1989 23.25 33 23.25H31.4372C31.2585 24.2979 30.7153 25.249 29.9033 25.9352C29.0914 26.6214 28.0631 26.9985 27 27H23.25V29.25H25.5C26.2956 29.25 27.0587 29.5661 27.6213 30.1287C28.1839 30.6913 28.5 31.4544 28.5 32.25C28.5 32.4489 28.421 32.6397 28.2803 32.7803C28.1397 32.921 27.9489 33 27.75 33C27.5511 33 27.3603 32.921 27.2197 32.7803C27.079 32.6397 27 32.4489 27 32.25C27 31.8522 26.842 31.4706 26.5607 31.1893C26.2794 30.908 25.8978 30.75 25.5 30.75H23.25V32.25C23.25 32.4489 23.171 32.6397 23.0303 32.7803C22.8897 32.921 22.6989 33 22.5 33C22.3011 33 22.1103 32.921 21.9697 32.7803C21.829 32.6397 21.75 32.4489 21.75 32.25V30.75H19.5C19.1022 30.75 18.7206 30.908 18.4393 31.1893C18.158 31.4706 18 31.8522 18 32.25C18 32.4489 17.921 32.6397 17.7803 32.7803C17.6397 32.921 17.4489 33 17.25 33C17.0511 33 16.8603 32.921 16.7197 32.7803C16.579 32.6397 16.5 32.4489 16.5 32.25C16.5 31.4544 16.8161 30.6913 17.3787 30.1287C17.9413 29.5661 18.7043 29.25 19.5 29.25H21.75V27H18C16.9369 26.9985 15.9086 26.6214 15.0967 25.9352C14.2847 25.249 13.7415 24.2979 13.5628 23.25H12C11.8011 23.25 11.6103 23.171 11.4697 23.0303C11.329 22.8897 11.25 22.6989 11.25 22.5C11.25 22.3011 11.329 22.1103 11.4697 21.9697C11.6103 21.829 11.8011 21.75 12 21.75H14.25C14.4489 21.75 14.6397 21.829 14.7803 21.9697C14.921 22.1103 15 22.3011 15 22.5C15 23.2956 15.3161 24.0587 15.8787 24.6213C16.4413 25.1839 17.2043 25.5 18 25.5H27C27.7956 25.5 28.5587 25.1839 29.1213 24.6213C29.6839 24.0587 30 23.2956 30 22.5C30 22.3011 30.079 22.1103 30.2197 21.9697C30.3603 21.829 30.5511 21.75 30.75 21.75H33C33.1989 21.75 33.3897 21.829 33.5303 21.9697C33.671 22.1103 33.75 22.3011 33.75 22.5ZM18 24H27C27.2149 24 27.4273 23.9538 27.6228 23.8646C27.8183 23.7754 27.9923 23.6452 28.1331 23.4829C28.2739 23.3206 28.3782 23.1299 28.4389 22.9238C28.4996 22.7176 28.5154 22.5009 28.485 22.2881L27.1987 13.2881C27.1463 12.9313 26.9676 12.6051 26.6951 12.3687C26.4226 12.1324 26.0744 12.0015 25.7137 12H19.2863C18.9256 12.0015 18.5774 12.1324 18.3049 12.3687C18.0324 12.6051 17.8537 12.9313 17.8012 13.2881L16.515 22.2881C16.4846 22.5009 16.5004 22.7176 16.5611 22.9238C16.6218 23.1299 16.7261 23.3206 16.8669 23.4829C17.0077 23.6452 17.1817 23.7754 17.3772 23.8646C17.5727 23.9538 17.7851 24 18 24Z" fill="#172CEB"/>
</svg>
