<svg width="41" height="39" viewBox="0 0 41 39" fill="none" xmlns="http://www.w3.org/2000/svg">
<rect x="0.5" y="0.5" width="40" height="38" rx="19" fill="#F5BA31" fill-opacity="0.1"/>
<path d="M20.5 25C21.75 25 22.8127 24.5627 23.688 23.688C24.5627 22.8127 25 21.75 25 20.5C25 19.25 24.5627 18.1873 23.688 17.312C22.8127 16.4373 21.75 16 20.5 16C19.25 16 18.1873 16.4373 17.312 17.312C16.4373 18.1873 16 19.25 16 20.5C16 21.75 16.4373 22.8127 17.312 23.688C18.1873 24.5627 19.25 25 20.5 25ZM12.5 28.5C11.95 28.5 11.4793 28.3043 11.088 27.913C10.696 27.521 10.5 27.05 10.5 26.5V14.5C10.5 13.95 10.696 13.4793 11.088 13.088C11.4793 12.696 11.95 12.5 12.5 12.5H15.65L16.9 11.15C17.0833 10.9333 17.304 10.7707 17.562 10.662C17.8207 10.554 18.0917 10.5 18.375 10.5H22.625C22.9083 10.5 23.1793 10.554 23.438 10.662C23.696 10.7707 23.9167 10.9333 24.1 11.15L25.35 12.5H28.5C29.05 12.5 29.521 12.696 29.913 13.088C30.3043 13.4793 30.5 13.95 30.5 14.5V26.5C30.5 27.05 30.3043 27.521 29.913 27.913C29.521 28.3043 29.05 28.5 28.5 28.5H12.5Z" fill="#F5BA31"/>
</svg>
