<svg width="45" height="45" viewBox="0 0 45 45" fill="none" xmlns="http://www.w3.org/2000/svg">
<rect x="0.5" y="0.5" width="44" height="44" rx="22" fill="#0DEF5A" fill-opacity="0.1"/>
<path d="M29.4998 12.5H19.4998C18.3968 12.5 17.4998 13.397 17.4998 14.5V20.086L12.7928 24.793C12.653 24.9329 12.5578 25.111 12.5192 25.305C12.4806 25.4989 12.5004 25.7 12.5761 25.8827C12.6518 26.0654 12.7799 26.2215 12.9443 26.3314C13.1087 26.4413 13.302 26.5 13.4998 26.5V31.5C13.4998 31.7652 13.6051 32.0196 13.7927 32.2071C13.9802 32.3946 14.2346 32.5 14.4998 32.5H30.4998C30.765 32.5 31.0194 32.3946 31.2069 32.2071C31.3944 32.0196 31.4998 31.7652 31.4998 31.5V14.5C31.4998 13.397 30.6028 12.5 29.4998 12.5ZM21.4998 30.5H15.4998V24.914L18.4998 21.914L21.4998 24.914V30.5ZM29.4998 30.5H23.4998V26.5C23.6978 26.5004 23.8914 26.442 24.0561 26.3322C24.2208 26.2224 24.3492 26.0662 24.425 25.8833C24.5007 25.7004 24.5204 25.4991 24.4816 25.305C24.4427 25.1109 24.3471 24.9327 24.2068 24.793L19.4998 20.086V14.5H29.4998V30.5Z" fill="#0DEF5A"/>
<path d="M21.5 16.5H23.5V18.5H21.5V16.5ZM25.5 16.5H27.5V18.5H25.5V16.5ZM25.5 20.531H27.5V22.5H25.5V20.531ZM25.5 24.5H27.5V26.5H25.5V24.5ZM17.5 25.5H19.5V27.5H17.5V25.5Z" fill="#0DEF5A"/>
</svg>
